ffmpeg version 3.4.8-0ubuntu0.2 Copyright (c) 2000-2020 the FFmpeg developers
  built with gcc 7 (Ubuntu 7.5.0-3ubuntu1~18.04)
  configuration: --prefix=/usr --extra-version=0ubuntu0.2 --toolchain=hardened --libdir=/usr/lib/x86_64-linux-gnu --incdir=/usr/include/x86_64-linux-gnu --enable-gpl --disable-stripping --enable-avresample --enable-avisynth --enable-gnutls --enable-ladspa --enable-libass --enable-libbluray --enable-libbs2b --enable-libcaca --enable-libcdio --enable-libflite --enable-libfontconfig --enable-libfreetype --enable-libfribidi --enable-libgme --enable-libgsm --enable-libmp3lame --enable-libmysofa --enable-libopenjpeg --enable-libopenmpt --enable-libopus --enable-libpulse --enable-librubberband --enable-librsvg --enable-libshine --enable-libsnappy --enable-libsoxr --enable-libspeex --enable-libssh --enable-libtheora --enable-libtwolame --enable-libvorbis --enable-libvpx --enable-libwavpack --enable-libwebp --enable-libx265 --enable-libxml2 --enable-libxvid --enable-libzmq --enable-libzvbi --enable-omx --enable-openal --enable-opengl --enable-sdl2 --enable-libdc1394 --enable-libdrm --enable-libiec61883 --enable-chromaprint --enable-frei0r --enable-libopencv --enable-libx264 --enable-shared
  libavutil      55. 78.100 / 55. 78.100
  libavcodec     57.107.100 / 57.107.100
  libavformat    57. 83.100 / 57. 83.100
  libavdevice    57. 10.100 / 57. 10.100
  libavfilter     6.107.100 /  6.107.100
  libavresample   3.  7.  0 /  3.  7.  0
  libswscale      4.  8.100 /  4.  8.100
  libswresample   2.  9.100 /  2.  9.100
  libpostproc    54.  7.100 / 54.  7.100
[rawvideo @ 0x56299cf91a20] Estimating duration from bitrate, this may be inaccurate
Input #0, rawvideo, from '../../SVC-Encoder-20220109T061506Z-001/SVC-Encoder/Dataset/RollerCoaster/ERP_8x8/tile_yuv/Tile_52_480x240.yuv':
  Duration: 00:00:10.00, start: 0.000000, bitrate: 41472 kb/s
    Stream #0:0: Video: rawvideo (I420 / 0x30323449), yuv420p, 480x240, 41472 kb/s, 30 tbr, 30 tbn, 30 tbc
Stream mapping:
  Stream #0:0 -> #0:0 (rawvideo (native) -> h264 (libx264))
Press [q] to stop, [?] for help
[libx264 @ 0x56299cf9ec60] using cpu capabilities: MMX2 SSE2Fast LZCNT SSSE3 SSE4.2 AVX
[libx264 @ 0x56299cf9ec60] profile High, level 2.1
Output #0, rawvideo, to 'RollerCoaster_Tile_52_480x240_x264_QP_40.h264':
  Metadata:
    encoder         : Lavf57.83.100
    Stream #0:0: Video: h264 (libx264), yuv420p, 480x240, q=-1--1, 30 fps, 30 tbn, 30 tbc
    Metadata:
      encoder         : Lavc57.107.100 libx264
    Side data:
      cpb: bitrate max/min/avg: 0/0/0 buffer size: 0 vbv_delay: -1
frame=  300 fps=0.0 q=46.0 LPSNR=Y:inf U:inf V:inf *:inf size=      16kB time=00:00:09.93 bitrate=  12.8kbits/s speed=  23x    
video:16kB audio:0kB subtitle:0kB other streams:0kB global headers:0kB muxing overhead: 0.000000%
[libx264 @ 0x56299cf9ec60] frame I:2     Avg QP:37.80  size:  1309  PSNR Mean Y:39.49 U:42.74 V:41.95 Avg:40.22 Global:40.02
[libx264 @ 0x56299cf9ec60] frame P:76    Avg QP:38.78  size:    98  PSNR Mean Y:38.96 U:42.24 V:41.57 Avg:39.73 Global:39.67
[libx264 @ 0x56299cf9ec60] frame B:222   Avg QP:45.58  size:    26  PSNR Mean Y:38.42 U:42.15 V:41.54 Avg:39.28 Global:39.23
[libx264 @ 0x56299cf9ec60] consecutive B-frames:  0.7%  1.3%  2.0% 96.0%
[libx264 @ 0x56299cf9ec60] mb I  I16..4: 20.9% 72.4%  6.7%
[libx264 @ 0x56299cf9ec60] mb P  I16..4:  0.3%  1.2%  0.0%  P16..4: 12.7%  0.2%  0.0%  0.0%  0.0%    skip:85.5%
[libx264 @ 0x56299cf9ec60] mb B  I16..4:  0.0%  0.0%  0.0%  B16..8:  2.3%  0.0%  0.0%  direct: 0.0%  skip:97.7%  L0:42.4% L1:57.6% BI: 0.0%
[libx264 @ 0x56299cf9ec60] 8x8 transform intra:76.1% inter:96.2%
[libx264 @ 0x56299cf9ec60] coded y,uvDC,uvAC intra: 6.8% 16.8% 4.0% inter: 0.1% 0.3% 0.0%
[libx264 @ 0x56299cf9ec60] i16 v,h,dc,p: 72% 18%  9%  1%
[libx264 @ 0x56299cf9ec60] i8 v,h,dc,ddl,ddr,vr,hd,vl,hu: 25% 25% 46%  0%  0%  0%  3%  0%  1%
[libx264 @ 0x56299cf9ec60] i4 v,h,dc,ddl,ddr,vr,hd,vl,hu:  6% 37% 26%  0%  8%  1% 18%  1%  3%
[libx264 @ 0x56299cf9ec60] i8c dc,h,v,p: 91%  8%  1%  0%
[libx264 @ 0x56299cf9ec60] Weighted P-Frames: Y:0.0% UV:0.0%
[libx264 @ 0x56299cf9ec60] ref P L0: 66.0% 17.5% 12.0%  4.6%
[libx264 @ 0x56299cf9ec60] ref B L0: 63.0% 31.7%  5.3%
[libx264 @ 0x56299cf9ec60] ref B L1: 81.1% 18.9%
[libx264 @ 0x56299cf9ec60] PSNR Mean Y:38.563 U:42.180 V:41.548 Avg:39.401 Global:39.341 kb/s:12.74
